<!-- icon666.com - MILLIONS vector ICONS FREE --><svg id="Capa_1" enable-background="new 0 0 512 512" viewBox="0 0 512 512" xmlns="http://www.w3.org/2000/svg"><g><path d="m235.265 211.09c2.238-5.049-.04-10.956-5.089-13.194-5.051-2.238-10.956.041-13.194 5.089-1.629 3.673-5.266 6.046-9.267 6.046s-7.638-2.373-9.267-6.046c-2.238-5.048-8.145-7.327-13.194-5.089s-7.327 8.146-5.089 13.194c4.832 10.898 15.646 17.941 27.55 17.941s22.718-7.043 27.55-17.941z" fill="#000000" style="fill: rgb(255, 255, 255);"></path><path d="m182.57 150.571v-10.041c0-5.523-4.477-10-10-10-5.522 0-10 4.477-10 10v10.041c0 5.522 4.478 10 10 10 5.523 0 10-4.477 10-10z" fill="#000000" style="fill: rgb(255, 255, 255);"></path><path d="m242.857 160.571c5.522 0 10-4.478 10-10v-10.041c0-5.523-4.478-10-10-10s-10 4.477-10 10v10.041c0 5.523 4.478 10 10 10z" fill="#000000" style="fill: rgb(255, 255, 255);"></path><path d="m390 312c-11.947 0-23.412 2.109-34.043 5.97-20.828-17.088-47.069-26.79-72.938-26.79h-22.005l-6.796-32.296c29.119-16.339 48.842-47.512 48.842-83.21 0-26.22 0-103.856 0-115.47 0-22.123-17.998-40.122-40.121-40.122-11.38 0-21.66 4.771-28.97 12.406-11.312-19.407-32.339-32.488-56.377-32.488h-85.346c-5.522 0-10 4.477-10 10v25.103c0 23.047 12.026 43.325 30.121 54.93v85.642c0 36.03 19.864 67.024 48.832 83.27l-6.783 32.236h-22.006c-54.775-.001-110.41 44.194-110.41 100.369v110.45c0 5.522 4.478 10 10 10h358c55.141 0 100-44.859 100-100s-44.859-100-100-100zm-167.07 29.22 33.795-30.04h21.152l-20.625 55.002c-.908-.661-31.223-22.708-34.322-24.962zm-8.137 40.78h-15.586l-5.896-17.68 13.689-9.956 13.689 9.956zm-58.045-15.818-20.625-55.002h21.152l33.796 30.04c-5.534 4.025-30.331 22.058-34.323 24.962zm86.068-305.978c0-11.096 9.027-20.122 20.123-20.122 11.095 0 20.121 9.026 20.121 20.122v20.123h-40.244c0-6.384 0-13.568 0-20.123zm-140.57-40.204h75.346c24.937 0 45.225 20.288 45.225 45.225v15.103h-75.348c-24.936 0-45.223-20.288-45.223-45.225zm30.121 155.674v-77.131c4.851 1.155 9.902 1.784 15.102 1.784h135.592v75.347c0 41.546-33.8 75.347-75.346 75.347-41.629-.001-75.348-33.71-75.348-75.347zm103.1 91.223 6.456 30.682-34.923 31.041-33.719-29.972 6.675-31.713c17.442 5.284 36.93 5.625 55.511-.038zm-193.467 124.653c0-39.944 35.994-71.114 73.415-78.63l27.222 72.592c2.315 6.174 9.894 8.467 15.245 4.575l18.462-13.427 5.359 16.071-18.049 99.269h-61.408v-60c0-5.522-4.478-10-10-10s-10 4.478-10 10v60h-40.246zm141.982 100.45 16.363-90h13.309l16.363 90zm66.364 0-18.049-99.269 5.359-16.071 18.462 13.427c5.343 3.886 12.929 1.6 15.245-4.575l27.314-72.837c13.004 2.41 25.873 7.691 37.184 15.285-27.573 17.823-45.861 48.835-45.861 84.04 0 32.677 15.755 61.74 40.065 80zm139.654 0c-44.112 0-80-35.888-80-80s35.888-80 80-80 80 35.888 80 80-35.888 80-80 80z" fill="#000000" style="fill: rgb(255, 255, 255);"></path><path d="m433.971 388.283-24.186-3.514-10.816-21.917c-1.686-3.413-5.161-5.574-8.968-5.574s-7.282 2.161-8.968 5.574l-10.816 21.917-24.186 3.514c-3.767.548-6.896 3.186-8.072 6.807-1.176 3.62-.195 7.594 2.53 10.251l17.501 17.06-4.131 24.089c-.643 3.752.899 7.543 3.979 9.78s7.163 2.531 10.531.762l21.631-11.374 21.633 11.373c1.463.77 3.061 1.148 4.652 1.148 6.148 0 10.911-5.536 9.857-11.69l-4.131-24.089 17.501-17.06c2.726-2.657 3.706-6.631 2.53-10.251-1.176-3.619-4.305-6.258-8.071-6.806zm-29.685 23.465c-2.356 2.298-3.432 5.607-2.876 8.852l1.596 9.3-8.353-4.391c-2.914-1.531-6.393-1.531-9.307 0l-8.353 4.391 1.596-9.3c.556-3.244-.52-6.554-2.876-8.852l-6.757-6.586 9.338-1.357c3.257-.474 6.072-2.52 7.529-5.471l4.176-8.462 4.176 8.462c1.457 2.951 4.272 4.997 7.529 5.471l9.338 1.357z" fill="#000000" style="fill: rgb(255, 255, 255);"></path></g></svg>