<!-- icon666.com - MILLIONS vector ICONS FREE --><svg xmlns="http://www.w3.org/2000/svg" viewBox="0 0 74 74"><g id="Numbers"><text transform="translate(26.989 -1010.544)" font-size="18" fill="red" font-family="ArialMT, Arial">10<tspan x="0" y="124">20</tspan><tspan x="0" y="248">30</tspan><tspan x="0" y="372">40</tspan><tspan x="0" y="496">50</tspan><tspan x="0" y="620">60</tspan><tspan x="0" y="744">70</tspan><tspan x="0" y="868">80</tspan><tspan x="0" y="992">90</tspan><tspan x="-5.005" y="1116">100</tspan><tspan x="-4.337" y="1240" letter-spacing="-0.074em">1</tspan><tspan x="4.337" y="1240">10</tspan><tspan x="-5.005" y="1364">120</tspan><tspan x="-5.005" y="1488">130</tspan><tspan x="-5.005" y="1612">140</tspan><tspan x="-5.005" y="1736">150</tspan><tspan x="-5.005" y="1860">160</tspan><tspan x="-5.005" y="1984">170</tspan><tspan x="-5.005" y="2108">180</tspan><tspan x="-5.005" y="2232">190</tspan><tspan x="-5.005" y="2356">200</tspan><tspan x="-5.005" y="2480">210</tspan><tspan x="-5.005" y="2604">220</tspan><tspan x="-5.005" y="2728">230</tspan><tspan x="-5.005" y="2852">240</tspan><tspan x="-5.005" y="2976">250</tspan><tspan x="-5.005" y="3100">260</tspan><tspan x="-5.005" y="3224">270</tspan><tspan x="-5.005" y="3348">280</tspan><tspan x="-5.005" y="3472">290</tspan><tspan x="-5.005" y="3596">300</tspan></text></g><g id="Icons"><path d="M66.592,67H7.408a5.333,5.333,0,0,1-4.694-2.748,5.4,5.4,0,0,1,.076-5.507L32.381,9.618a5.384,5.384,0,0,1,9.238,0L71.21,58.745a5.4,5.4,0,0,1,.076,5.507A5.333,5.333,0,0,1,66.592,67ZM37,9a3.369,3.369,0,0,0-2.906,1.65L4.5,59.777a3.423,3.423,0,0,0-.048,3.491A3.357,3.357,0,0,0,7.408,65H66.592a3.357,3.357,0,0,0,2.953-1.732,3.423,3.423,0,0,0-.048-3.491L39.906,10.65A3.369,3.369,0,0,0,37,9Z" fill="#000000" style="fill: rgb(255, 0, 0);"></path><path d="M37,50a3,3,0,0,1-3-3V27a3,3,0,0,1,6,0V47A3,3,0,0,1,37,50Zm0-24a1,1,0,0,0-1,1V47a1,1,0,0,0,2,0V27A1,1,0,0,0,37,26Z" fill="#000000" style="fill: rgb(255, 0, 0);"></path><path d="M37,60a3,3,0,0,1-3-3V56a3,3,0,0,1,6,0v1A3,3,0,0,1,37,60Zm0-5a1,1,0,0,0-1,1v1a1,1,0,0,0,2,0V56A1,1,0,0,0,37,55Z" fill="#000000" style="fill: rgb(255, 0, 0);"></path></g></svg>