<!-- icon666.com - MILLIONS vector ICONS FREE --><svg version="1.1" id="Capa_1" xmlns="http://www.w3.org/2000/svg" xmlns:xlink="http://www.w3.org/1999/xlink" x="0px" y="0px" viewBox="0 0 243.527 243.527" style="enable-background:new 0 0 243.527 243.527;" xml:space="preserve"><path d="M110.627,26.195H0v175.963h95.378l10.292,15.174h32.188l10.293-15.174h95.377V26.195H132.9H110.627z M110.627,179.885 H22.274V48.469h88.354V179.885z M221.254,179.885H132.9V48.469h88.354V179.885z M90.975,86.057H41.693V69.352h49.281V86.057z M90.975,119.467H41.693v-16.705h49.281V119.467z M90.975,152.877H41.693v-16.705h49.281V152.877z M201.834,86.057h-49.281V69.352 h49.281V86.057z M201.834,119.467h-49.281v-16.705h49.281V119.467z M201.834,152.877h-49.281v-16.705h49.281V152.877z" fill="#000000" style="fill: rgb(255, 255, 255);"></path></svg>