<!-- icon666.com - MILLIONS vector ICONS FREE --><svg id="svg28031" viewBox="0 0 16.933333 16.933334" xmlns="http://www.w3.org/2000/svg" xmlns:svg="http://www.w3.org/2000/svg"><g id="layer1" transform="translate(0 -280.067)"><path id="path11316" d="m15.610416 281.91874h-14.2875012c-.293158 0-.52916587.23601-.52916587.52917v8.99583c0 .29316.23600787.52917.52916587.52917h2.1166672v3.175l3.1749999-3.175h8.9958341c.293158 0 .529166-.23601.529166-.52917v-8.99583c0-.29316-.236008-.52917-.529166-.52917z" fill="#33b9ef"></path><path id="path2986-4" d="m1.3229148 281.65468c-.43515987 0-.79271487.35755-.79271487.79271-.03453.38438.56162287.38438.52709687 0 0-.15115.114464-.26355.265618-.26355h14.2869842c.151154 0 .266134.1124.266134.26355v7.9375c-.008.3607.537173.3607.529167 0v-7.9375c0-.43516-.36014-.79271-.795301-.79271zm-.53329887 1.58388c-.145312.003-.261133.12235-.259416.26768v7.9375c0 .43516.357555.79272.79271487.79272h1.8515682v2.91248c.00191.23431.284943.3507.4511328.18552l3.098003-3.098h8.8862802c.435161 0 .795301-.35756.795301-.79272.008-.36069-.537173-.36069-.529167 0 0 .15116-.11498.26562-.266134.26562h-8.9958333c-.07013-.00053-.1375939.0268-.1875869.076l-2.7228299 2.7249v-2.53731c-.0005292-.14531-.118237-.26297-.263551-.26355h-2.1171831c-.151154 0-.265618-.11446-.265618-.26562v-7.9375c.0019-.14855-.11913087-.26942-.26768087-.26768zm4.23643107.26768c-.3606901-.008-.3606901.53717 0 .52917h8.996352c.360691.008.360691-.53717 0-.52917zm-2.1151161 2.64635h8.4666671c.345038-.008.345038-.52151 0-.52916h-8.4803622c-.358412.0254-.331811.53944.013711.52916zm9.4981291-.52916c-.344725.0254-.318119.53945.02739.52916h1.585949c.345038-.008.345038-.52151 0-.52916h-1.585949c-.0091-.00048-.01826-.00048-.02739 0zm-9.4981291 2.64428h11.1114681c.363366.0321.393634-.52033.01447-.52762l-11.13963.00053c-.3390959.0409-.3141899.52019.013711.5271zm0 1.58802c-.3606771-.008-.3606771.53715 0 .52916h2.1171851c.3450507-.008.3450507-.52152 0-.52916zm3.1739679 0c-.3606771-.008-.3606771.53715 0 .52916h7.9375002c.345051-.008.345051-.52152 0-.52916z" font-variant-ligatures="normal" font-variant-position="normal" font-variant-caps="normal" font-variant-numeric="normal" font-variant-alternates="normal" font-feature-settings="normal" text-indent="0" text-align="start" text-decoration-line="none" text-decoration-style="solid" text-decoration-color="#000000" text-transform="none" text-orientation="mixed" white-space="normal" shape-padding="0" isolation="auto" mix-blend-mode="normal" solid-color="#000000" solid-opacity="1" vector-effect="none" fill="#000000" style="fill: rgb(255, 255, 255);"></path></g></svg>