<!-- icon666.com - MILLIONS vector ICONS FREE --><svg id="svg28031" viewBox="0 0 16.933333 16.933334" xmlns="http://www.w3.org/2000/svg" xmlns:svg="http://www.w3.org/2000/svg"><g id="layer1" transform="translate(0 -280.067)"><path id="path2986" d="m1.3229155 281.65466c-.43516017 0-.79271545.35755-.79271545.79271-.0345255.38438.56162305.38438.52709755 0 0-.15115.1144641-.26355.2656179-.26355h14.2869845c.151154 0 .266134.1124.266134.26355v7.9375c-.008.3607.537173.3607.529166 0v-7.9375c0-.43516-.36014-.79271-.7953-.79271zm-.53329942 1.58388c-.14531182.003-.26113317.12235-.25941603.26768v7.9375c0 .43516.35755528.79272.79271545.79272h1.8515675v2.91248c.00185.23431.2849431.3507.4511332.18552l3.0980036-3.098h8.8862802c.43516 0 .7953-.35756.7953-.79272.008-.36069-.537172-.36069-.529166 0 0 .15116-.11498.26562-.266134.26562h-8.9958336c-.070125-.00053-.1375939.0268-.1875869.076l-2.7228298 2.7249v-2.53731c-.0005292-.14531-.118237-.26297-.2635514-.26355h-2.1171828c-.1511538 0-.2656179-.11446-.2656179-.26562v-7.9375c.00185-.14855-.11913121-.26942-.26768152-.26768zm4.23643172.26768c-.3606906-.008-.3606906.53717 0 .52917h8.9963522c.360691.008.360691-.53717 0-.52917zm-2.1151162 2.64635h8.4666674c.345037-.008.345037-.52151 0-.52916h-8.4803623c-.3584125.0254-.3318113.53944.013705.52916zm9.4981294-.52916c-.344726.0254-.318119.53945.02739.52916h1.58595c.345038-.008.345038-.52151 0-.52916h-1.58595c-.0091-.00048-.01826-.00048-.02739 0zm-9.4981294 2.64428h11.1114684c.363366.0321.393634-.52033.01447-.52762l-11.139631.00053c-.3390953.0409-.3141901.52019.013706.5271zm0 1.58802c-.3606774-.008-.3606774.53715 0 .52916h2.1171853c.345051-.008.345051-.52152 0-.52916zm3.1739681 0c-.3606773-.008-.3606773.53715 0 .52916h7.9375003c.345051-.008.345051-.52152 0-.52916z" font-variant-ligatures="normal" font-variant-position="normal" font-variant-caps="normal" font-variant-numeric="normal" font-variant-alternates="normal" font-feature-settings="normal" text-indent="0" text-align="start" text-decoration-line="none" text-decoration-style="solid" text-decoration-color="rgb(0,0,0)" text-transform="none" text-orientation="mixed" white-space="normal" shape-padding="0" isolation="auto" mix-blend-mode="normal" solid-color="rgb(0,0,0)" solid-opacity="1" vector-effect="none" fill="#000000" style="fill: rgb(255, 255, 255);"></path></g></svg>