<!-- icon666.com - MILLIONS vector ICONS FREE --><svg id="Capa_1" enable-background="new 0 0 512.006 512.006" viewBox="0 0 512.006 512.006" xmlns="http://www.w3.org/2000/svg"><g><path d="m256.003 117.89c-25.911-16.943-56.797-26.887-90-26.887-90.981 0-166 74.019-166 165 0 30.601 8.394 60.234 24.36 86.191l-23.291 58.242c-2.227 5.566-.923 11.924 3.325 16.172 4.191 4.191 10.527 5.574 16.172 3.325l58.242-23.291c25.957 15.967 56.591 24.36 87.191 24.36 33.203 0 64.089-9.944 90-26.887l-45-138.113z" fill="#fed843" style="fill: rgb(67, 89, 254);"></path><path d="m487.643 169.811 23.291-58.242c2.227-5.566.923-11.924-3.325-16.172-4.248-4.263-10.605-5.522-16.172-3.325l-58.242 23.291c-25.957-15.967-56.591-24.36-87.191-24.36-33.203 0-64.089 9.944-90 26.887l45 138.113-45 138.113c25.911 16.943 56.797 26.887 90 26.887 90.981 0 166-74.019 166-165-.001-30.601-8.395-60.235-24.361-86.192z" fill="#e63950" style="fill: rgb(54, 230, 242);"></path><path d="m256.003 394.115c-46.963-30.705-75-82.336-75-138.113s28.037-107.408 75-138.113c46.963 30.706 64 82.336 64 138.113s-17.037 107.408-64 138.113z" fill="#7ed8f6"></path><path d="m331.003 256.003c0-57.779-29.908-108.631-75-138.113v276.226c45.092-29.482 75-80.334 75-138.113z" fill="#6aa9ff"></path><circle cx="136.003" cy="256.003" fill="#edf5ff" r="15"></circle><circle cx="376.003" cy="256.003" fill="#d5e8fe" r="15"></circle><circle cx="256.003" cy="256.003" fill="#edf5ff" r="15"></circle><path d="m271.003 256.003c0-8.286-6.716-15-15-15v30c8.284 0 15-6.717 15-15z" fill="#d5e8fe"></path></g></svg>