<!-- icon666.com - MILLIONS vector ICONS FREE --><svg version="1.1" id="Capa_1" xmlns="http://www.w3.org/2000/svg" xmlns:xlink="http://www.w3.org/1999/xlink" x="0px" y="0px" viewBox="0 0 512 512" style="enable-background:new 0 0 512 512;" xml:space="preserve"><g><g><g><path d="M501.333,21.333H10.667C4.779,21.333,0,26.112,0,32v277.333C0,315.221,4.779,320,10.667,320h36.245 c9.088,24.853,32.341,42.667,59.755,42.667s50.667-17.813,59.755-42.667h29.824c9.109,24.853,32.341,42.667,59.755,42.667 s50.667-17.813,59.755-42.667h29.824c9.109,24.853,32.341,42.667,59.755,42.667S456,344.853,465.088,320h36.245 c5.888,0,10.667-4.779,10.667-10.667V32C512,26.112,507.221,21.333,501.333,21.333z M106.667,341.333 C83.136,341.333,64,321.515,64,297.152c0-24.384,19.136-44.203,42.667-44.203c23.531,0,42.667,19.819,42.667,44.203 C149.333,321.515,130.197,341.333,106.667,341.333z M256,341.333c-23.531,0-42.667-19.819-42.667-44.181 c0-24.384,19.136-44.203,42.667-44.203s42.667,19.819,42.667,44.203C298.667,321.515,279.531,341.333,256,341.333z M405.333,341.333c-23.531,0-42.667-19.819-42.667-44.181c0-24.384,19.136-44.203,42.667-44.203 c23.531,0,42.667,19.819,42.667,44.203C448,321.515,428.864,341.333,405.333,341.333z M490.667,298.667h-21.483 c0.021-0.512,0.149-1.003,0.149-1.515c0-36.139-28.715-65.536-64-65.536c-35.285,0-64,29.397-64,65.536 c0,0.512,0.128,1.003,0.149,1.515h-21.632c0.021-0.512,0.149-1.003,0.149-1.515c0-36.139-28.715-65.536-64-65.536 s-64,29.397-64,65.536c0,0.512,0.128,1.003,0.149,1.515h-21.632c0.021-0.512,0.149-1.003,0.149-1.515 c0-36.139-28.715-65.536-64-65.536s-64,29.397-64,65.536c0,0.512,0.128,1.003,0.149,1.515H21.333v-256h469.333V298.667z" fill="#000000" style="fill: rgb(255, 255, 255);"></path><path d="M330.667,384.32c-9.728-13.056-25.152-21.653-42.667-21.653h-32h-32c-17.515,0-32.939,8.597-42.667,21.653 c-9.728-13.056-25.152-21.653-42.667-21.653h-32h-32c-29.397,0-53.333,23.936-53.333,53.333v64 c0,5.888,4.779,10.667,10.667,10.667h149.333h149.333H480c5.888,0,10.667-4.779,10.667-10.667v-64 c0-29.397-23.936-53.333-53.333-53.333h-32h-32C355.819,362.667,340.395,371.264,330.667,384.32z M170.667,469.333h-128V416 c0-17.643,14.357-32,32-32h64c17.643,0,32,14.357,32,32V469.333z M320,469.333H192V416c0-17.643,14.357-32,32-32h64 c17.643,0,32,14.357,32,32V469.333z M437.333,384c17.643,0,32,14.357,32,32v53.333h-128V416c0-17.643,14.357-32,32-32H437.333z" fill="#000000" style="fill: rgb(255, 255, 255);"></path></g></g></g></svg>