<!-- icon666.com - MILLIONS vector ICONS FREE --><svg version="1.1" id="Layer_1" xmlns="http://www.w3.org/2000/svg" xmlns:xlink="http://www.w3.org/1999/xlink" x="0px" y="0px" viewBox="0 0 512 512" style="enable-background:new 0 0 512 512;" xml:space="preserve"><g><g><path d="M496.995,482h-16V227.006c0-6.457-4.131-12.188-10.257-14.23l-169.739-56.58v-51.187c0-6.253-3.878-11.85-9.733-14.045 L51.272,0.966c-9.796-3.673-20.267,3.58-20.267,14.045v466.99h-16c-8.284,0-15,6.716-15,15s6.716,15,15,15 c3.369,0,475.49,0,481.99,0c8.284,0,15-6.716,15-15S505.279,482,496.995,482z M151.002,482h-29.999v-59.999h29.999V482z M211.001,482h-29.999v-59.999h29.999V482z M271,167.007V482h-29.999v-74.998c0-8.284-6.716-15-15-15H106.003 c-8.284,0-15,6.716-15,15V482H61.004V36.655L271,115.403V167.007z M390.997,482h-29.999v-59.999h29.999V482z M450.996,482h-29.999 v-74.998c0-8.284-6.716-15-15-15h-59.999c-8.284,0-15,6.716-15,15V482h-29.999V187.818l149.997,49.999V482z" fill="#000000" style="fill: rgb(255, 255, 255);"></path></g></g><g><g><path d="M136.003,332.003h-29.999c-8.284,0-15,6.716-15,15s6.715,15,15,15h29.999c8.284,0,15-6.716,15-15 S144.287,332.003,136.003,332.003z" fill="#000000" style="fill: rgb(255, 255, 255);"></path></g></g><g><g><path d="M226.001,332.003h-29.999c-8.284,0-15,6.716-15,15s6.715,15,15,15h29.999c8.284,0,15-6.716,15-15 S234.285,332.003,226.001,332.003z" fill="#000000" style="fill: rgb(255, 255, 255);"></path></g></g><g><g><path d="M136.003,272.005h-29.999c-8.284,0-15,6.716-15,15s6.715,15,15,15h29.999c8.284,0,15-6.716,15-15 S144.287,272.005,136.003,272.005z" fill="#000000" style="fill: rgb(255, 255, 255);"></path></g></g><g><g><path d="M226.001,272.005h-29.999c-8.284,0-15,6.716-15,15s6.715,15,15,15h29.999c8.284,0,15-6.716,15-15 S234.285,272.005,226.001,272.005z" fill="#000000" style="fill: rgb(255, 255, 255);"></path></g></g><g><g><path d="M405.997,332.003h-59.999c-8.284,0-15,6.716-15,15s6.715,15,15,15h59.999c8.284,0,15-6.716,15-15 S414.281,332.003,405.997,332.003z" fill="#000000" style="fill: rgb(255, 255, 255);"></path></g></g><g><g><path d="M405.997,272.005h-59.999c-8.284,0-15,6.716-15,15s6.715,15,15,15h59.999c8.284,0,15-6.716,15-15 S414.281,272.005,405.997,272.005z" fill="#000000" style="fill: rgb(255, 255, 255);"></path></g></g><g><g><path d="M136.003,212.006h-29.999c-8.284,0-15,6.716-15,15c0,8.284,6.715,15,15,15h29.999c8.284,0,15-6.716,15-15 C151.002,218.722,144.287,212.006,136.003,212.006z" fill="#000000" style="fill: rgb(255, 255, 255);"></path></g></g><g><g><path d="M226.001,212.006h-29.999c-8.284,0-15,6.716-15,15c0,8.284,6.715,15,15,15h29.999c8.284,0,15-6.716,15-15 C241.001,218.722,234.285,212.006,226.001,212.006z" fill="#000000" style="fill: rgb(255, 255, 255);"></path></g></g><g><g><path d="M136.003,152.007h-29.999c-8.284,0-15,6.716-15,15c0,8.284,6.715,15,15,15h29.999c8.284,0,15-6.716,15-15 C151.002,158.723,144.287,152.007,136.003,152.007z" fill="#000000" style="fill: rgb(255, 255, 255);"></path></g></g><g><g><path d="M226.001,152.007h-29.999c-8.284,0-15,6.716-15,15c0,8.284,6.715,15,15,15h29.999c8.284,0,15-6.716,15-15 C241.001,158.723,234.285,152.007,226.001,152.007z" fill="#000000" style="fill: rgb(255, 255, 255);"></path></g></g></svg>