<!-- icon666.com - MILLIONS vector ICONS FREE --><svg viewBox="0 -31 512 512" xmlns="http://www.w3.org/2000/svg"><path d="m61 150h30v30h-30zm0 0" fill="#000000" style="fill: rgb(255, 255, 255);"></path><path d="m121 150h60v30h-60zm0 0" fill="#000000" style="fill: rgb(255, 255, 255);"></path><path d="m61 210h30v30h-30zm0 0" fill="#000000" style="fill: rgb(255, 255, 255);"></path><path d="m121 210h60v30h-60zm0 0" fill="#000000" style="fill: rgb(255, 255, 255);"></path><path d="m61 270h30v30h-30zm0 0" fill="#000000" style="fill: rgb(255, 255, 255);"></path><path d="m121 270h60v30h-60zm0 0" fill="#000000" style="fill: rgb(255, 255, 255);"></path><path d="m61 330h30v30h-30zm0 0" fill="#000000" style="fill: rgb(255, 255, 255);"></path><path d="m121 330h60v30h-60zm0 0" fill="#000000" style="fill: rgb(255, 255, 255);"></path><path d="m256 390c23.375 0 42.636719-17.917969 44.792969-40.734375l37.707031-9.429687c8.066406 12.140624 21.863281 20.164062 37.5 20.164062 24.8125 0 45-20.1875 45-45s-20.1875-45-45-45c-4.6875 0-9.207031.722656-13.457031 2.058594l-39.097657-52.132813c4.023438-6.027343 6.628907-13.074219 7.347657-20.664062l37.707031-9.425781c8.066406 12.140624 21.863281 20.164062 37.5 20.164062 24.8125 0 45-20.1875 45-45s-20.1875-45-45-45c-23.375 0-42.636719 17.917969-44.792969 40.734375l-37.707031 9.429687c-8.066406-12.140624-21.863281-20.164062-37.5-20.164062-24.8125 0-45 20.1875-45 45s20.1875 45 45 45c4.6875 0 9.207031-.722656 13.457031-2.058594l39.097657 52.132813c-4.023438 6.027343-6.628907 13.074219-7.347657 20.664062l-37.707031 9.425781c-8.066406-12.140624-21.863281-20.164062-37.5-20.164062-24.8125 0-45 20.1875-45 45s20.1875 45 45 45zm135-75c0 8.269531-6.730469 15-15 15s-15-6.730469-15-15 6.730469-15 15-15 15 6.730469 15 15zm15-165c8.269531 0 15 6.730469 15 15s-6.730469 15-15 15-15-6.730469-15-15 6.730469-15 15-15zm-135 45c0-8.269531 6.730469-15 15-15s15 6.730469 15 15-6.730469 15-15 15-15-6.730469-15-15zm-15 135c8.269531 0 15 6.730469 15 15s-6.730469 15-15 15-15-6.730469-15-15 6.730469-15 15-15zm0 0" fill="#000000" style="fill: rgb(255, 255, 255);"></path><path d="m0 0v450h512c0-7.296875 0-442.707031 0-450zm482 420h-452v-330h452zm-452-360v-30h452v30zm0 0" fill="#000000" style="fill: rgb(255, 255, 255);"></path></svg>