<!-- icon666.com - MILLIONS vector ICONS FREE --><svg viewBox="0 0 128 128" xmlns="http://www.w3.org/2000/svg"><g><path d="m6.5 41.885h115a0 0 0 0 1 0 0v73.615a6 6 0 0 1 -6 6h-103a6 6 0 0 1 -6-6v-73.615a0 0 0 0 1 0 0z" fill="#5c91d9"></path><rect fill="#6aa8fb" height="93.745" rx="6" width="115" x="6.5" y="14.667"></rect><path d="m115.5 62.728a1.75 1.75 0 0 1 -1.75-1.75v-9a1.75 1.75 0 0 1 3.5 0v9a1.75 1.75 0 0 1 -1.75 1.75z" fill="#5c91d9"></path><path d="m12.5 14.667h103a6 6 0 0 1 6 6v16.666a0 0 0 0 1 0 0h-115a0 0 0 0 1 0 0v-16.666a6 6 0 0 1 6-6z" fill="#5c91d9"></path><g fill="#eaeaf0"><g><path d="m27.5 6.5h6v16.333h-6z"></path><path d="m49.833 6.5h6v16.333h-6z"></path><path d="m72.167 6.5h6v16.333h-6z"></path><path d="m94.5 6.5h6v16.333h-6z"></path></g><g><g><path d="m22.167 50.336h9v9h-9z"></path><path d="m40.833 50.336h9v9h-9z"></path><path d="m59.5 50.336h9v9h-9z"></path><path d="m78.167 50.336h9v9h-9z"></path><path d="m96.833 50.336h9v9h-9z"></path></g><g><path d="m22.167 68.373h9v9h-9z"></path><path d="m40.833 68.373h9v9h-9z"></path><path d="m59.5 68.373h9v9h-9z"></path><path d="m78.167 68.373h9v9h-9z"></path><path d="m96.833 68.373h9v9h-9z"></path></g><g><path d="m22.167 86.409h9v9h-9z"></path><path d="m40.833 86.409h9v9h-9z"></path><path d="m59.5 86.409h9v9h-9z"></path><path d="m78.167 86.409h9v9h-9z"></path><path d="m96.833 86.409h9v9h-9z"></path></g></g></g></g></svg>