<!-- icon666.com - MILLIONS vector ICONS FREE --><svg clip-rule="evenodd" fill-rule="evenodd" image-rendering="optimizeQuality" shape-rendering="geometricPrecision" text-rendering="geometricPrecision" viewBox="0 0 1707 1707" xmlns="http://www.w3.org/2000/svg"><g id="Layer_x0020_1"><g id="_372266280" fill-rule="nonzero"><path d="m1500 647c57 0 109 23 146 60 38 38 61 89 61 146s-23 109-61 146c-37 38-89 61-146 61s-108-23-146-61c-37-37-60-89-60-146s23-108 60-146c38-37 89-60 146-60z" fill="#ff5900"></path><path d="m853 647c57 0 109 23 146 60 38 38 61 89 61 146s-23 109-61 146c-37 38-89 61-146 61s-108-23-146-61c-37-37-60-89-60-146s23-108 60-146c38-37 89-60 146-60z" fill="#66c" style="fill: rgb(0, 78, 204);"></path><path d="m206 647c57 0 109 23 146 60 38 38 61 89 61 146s-23 109-61 146c-37 38-89 61-146 61s-108-23-146-61c-37-37-60-89-60-146s23-108 60-146c38-37 89-60 146-60z" fill="#ff5900"></path></g></g></svg>