<!-- icon666.com - MILLIONS vector ICONS FREE --><svg xmlns="http://www.w3.org/2000/svg" viewBox="0 0 32 32"><g id="Layer_20" data-name="Layer 20"><path d="M21,25H19V19a3,3,0,0,0-6,0v6H11a1,1,0,0,0-.707,1.707l5,5a1,1,0,0,0,1.414,0l5-5A1,1,0,0,0,21,25Zm-5,4.586L13.414,27H14a1,1,0,0,0,1-1V19a1,1,0,0,1,2,0v7a1,1,0,0,0,1,1h.586Z" fill="#000000" style="fill: rgb(255, 255, 255);"></path><path d="M22.966,4.07c-.026-.046-.06-.086-.087-.132q-.178-.3-.383-.584c-.074-.1-.148-.205-.227-.305-.126-.159-.26-.311-.4-.46s-.292-.3-.447-.445c-.1-.092-.2-.184-.3-.271-.127-.106-.254-.209-.386-.306s-.258-.178-.39-.264c-.191-.124-.385-.24-.585-.347-.147-.079-.3-.154-.447-.224-.121-.055-.242-.109-.365-.158A7.77,7.77,0,0,0,18.169.3c-.066-.019-.134-.032-.2-.049Q17.6.161,17.216.1c-.089-.013-.177-.026-.267-.037a7.068,7.068,0,0,0-1.9,0c-.09.011-.178.024-.267.037q-.381.06-.752.154c-.067.017-.135.03-.2.049a7.77,7.77,0,0,0-.778.27c-.123.049-.244.1-.365.158-.152.07-.3.145-.447.224-.2.107-.394.223-.585.347-.132.086-.263.171-.39.264s-.259.2-.386.306c-.1.087-.2.179-.3.271-.155.143-.3.29-.447.445s-.272.3-.4.46c-.079.1-.153.2-.227.305q-.2.284-.383.584c-.027.046-.061.086-.087.132A8,8,0,1,0,8,20h2a1,1,0,0,0,0-2H8A5.995,5.995,0,1,1,8.254,6.016a7.8,7.8,0,0,0-.173.842,1,1,0,0,0,1.981.284,5.887,5.887,0,0,1,.593-1.829c.057-.113.114-.226.177-.334a6.057,6.057,0,0,1,.418-.616c.042-.055.08-.115.123-.168a6.1,6.1,0,0,1,1.5-1.3c.058-.036.119-.066.178-.1a6.06,6.06,0,0,1,.7-.339c.087-.035.176-.069.265-.1a5.946,5.946,0,0,1,.7-.2c.092-.02.183-.046.277-.062a5.477,5.477,0,0,1,2.01,0c.094.016.184.041.277.062a5.946,5.946,0,0,1,.7.2c.089.032.178.066.265.1a6.06,6.06,0,0,1,.7.339c.059.033.12.063.178.1a6.1,6.1,0,0,1,1.5,1.3c.043.053.081.113.123.168a6.057,6.057,0,0,1,.418.616c.063.108.12.221.177.334a5.887,5.887,0,0,1,.593,1.829,1,1,0,0,0,.99.858.978.978,0,0,0,.142-.01,1,1,0,0,0,.849-1.132,7.85,7.85,0,0,0-.173-.842A5.995,5.995,0,1,1,24,18H23a1,1,0,0,0,0,2h1A8,8,0,1,0,22.966,4.07Z" fill="#000000" style="fill: rgb(255, 255, 255);"></path></g></svg>