<!-- icon666.com - MILLIONS vector ICONS FREE --><svg id="Layer_1" enable-background="new 0 0 64 64" viewBox="0 0 64 64" xmlns="http://www.w3.org/2000/svg" xmlns:xlink="http://www.w3.org/1999/xlink"><linearGradient id="lg1"><stop offset="0" stop-color="#1a6fb0"></stop><stop offset="1" stop-color="#3d9ae2"></stop></linearGradient><linearGradient id="SVGID_1_" gradientUnits="userSpaceOnUse" x1="20.586" x2="43.414" xlink:href="#lg1" y1="27.414" y2="4.586"></linearGradient><linearGradient id="SVGID_2_" gradientUnits="userSpaceOnUse" x1="14.793" x2="49.207" y1="64.793" y2="30.379"><stop offset="0" stop-color="#00b6bd"></stop><stop offset="1" stop-color="#46f8ff"></stop></linearGradient><linearGradient id="SVGID_3_" gradientUnits="userSpaceOnUse" x1="16.086" x2="47.914" xlink:href="#lg1" y1="73.743" y2="41.914"></linearGradient><g><path d="m45.848 23.235c-.31-.748-1.039-1.235-1.848-1.235h-4v-20c0-1.104-.896-2-2-2h-12c-1.105 0-2 .896-2 2v20h-4c-.809 0-1.538.487-1.848 1.235-.309.747-.139 1.607.434 2.179l12 12c.39.391.902.586 1.414.586s1.024-.195 1.414-.586l12-12c.572-.572.743-1.432.434-2.179z" fill="url(#SVGID_1_)"></path><path d="m58 40h-14c-.53 0-1.039.211-1.414.586l-3.415 3.414h-14.342l-3.415-3.414c-.375-.375-.884-.586-1.414-.586h-14c-1.104 0-2 .896-2 2v12h56v-12c0-1.104-.896-2-2-2z" fill="url(#SVGID_2_)"></path><path d="m4 54v6c0 2.209 1.791 4 4 4h48c2.209 0 4-1.791 4-4v-6z" fill="url(#SVGID_3_)"></path></g></svg>