<!-- icon666.com - MILLIONS vector ICONS FREE --><svg id="Layer_1" enable-background="new 0 0 512 512" viewBox="0 0 512 512" xmlns="http://www.w3.org/2000/svg"><path d="m458.187 115.429c-17.376-20.252-40.832-34.324-66.648-40.119-29.049-46.627-80.345-75.31-135.538-75.31-70.204 0-131.497 45.434-152.256 111.621-20.839 5.242-39.728 16.825-53.949 33.245-16.57 19.132-25.696 43.623-25.696 68.96 0 58.104 47.271 105.375 105.375 105.375h79.391l.001 47.232c-1.476-.142-2.961-.213-4.448-.213-12.574 0-24.395 4.896-33.284 13.786-18.376 18.378-18.376 48.279 0 66.655l51.536 51.536c8.904 8.9 20.739 13.803 33.327 13.803h.004c12.586 0 24.421-4.903 33.328-13.806l51.53-51.534c18.377-18.376 18.377-48.279-.001-66.659-8.889-8.888-20.708-13.782-33.28-13.782-1.485 0-2.968.071-4.442.212v-47.231h61.314c68.07 0 123.449-55.379 123.449-123.45 0-29.463-10.553-57.988-29.713-80.321zm-150.608 280.79c4.56 0 8.846 1.774 12.067 4.996 6.681 6.682 6.681 17.552.001 24.233l-51.53 51.533c-3.238 3.238-7.54 5.021-12.115 5.021h-.001c-4.577 0-8.879-1.783-12.115-5.018l-51.535-51.535c-6.68-6.68-6.68-17.549 0-24.23 3.223-3.223 7.51-4.999 12.07-4.999 3.788 0 7.374 1.204 10.37 3.482 4.537 3.449 10.636 4.03 15.743 1.498 5.106-2.532 8.335-7.739 8.335-13.438l-.004-223.432c0-4.577 1.782-8.879 5.019-12.116s7.541-5.02 12.117-5.02c9.449.001 17.136 7.687 17.136 17.134v139.835c0 .013-.002.025-.002.039s.002.025.002.039v83.517c0 5.699 3.229 10.906 8.335 13.438 5.105 2.533 11.206 1.953 15.742-1.497 2.994-2.278 6.578-3.48 10.365-3.48zm56.872-107.019h-61.314v-124.874c0-25.987-21.144-47.131-47.135-47.134-12.59 0-24.428 4.903-33.331 13.806-8.904 8.904-13.807 20.741-13.806 33.332l.002 124.871h-79.391c-41.562 0-75.375-33.813-75.375-75.375 0-36.907 27.457-68.937 63.868-74.504 5.978-.914 10.823-5.329 12.287-11.197 14.409-57.775 66.118-98.125 125.745-98.125 46.737 0 90.036 25.331 112.999 66.107 2.236 3.97 6.154 6.708 10.651 7.443 45.341 7.41 78.249 46.186 78.249 92.199 0 51.53-41.921 93.451-93.449 93.451z" fill="#000000" style="fill: rgb(255, 255, 255);"></path></svg>