<!-- icon666.com - MILLIONS vector ICONS FREE --><svg id="Layer_1" enable-background="new 0 0 91 91" viewBox="0 0 91 91" xmlns="http://www.w3.org/2000/svg"><g><g fill="rgb(0,0,0)"><path d="m35.7 39.3c1 .3 2-.3 2.2-1.3l.5-2h1.5c1 0 1.8-.8 1.8-1.8s-.8-1.8-1.8-1.8h-.6l1-4.1c.1-.2.6-.2.7.1l2.6 9.7c.2.8 1 1.4 1.8 1.4.2 0 .3 0 .5-.1 1-.3 1.6-1.3 1.3-2.2l-2.7-10c-.3-.9-1.4-2.4-3.8-2.4-2.5 0-3.6 1.6-3.9 2.6l-2.5 9.8c-.2.8.4 1.8 1.4 2.1z" fill="rgb(0,0,0)" style="fill: rgb(255, 255, 255);"></path><path d="m13.9 39.4h4c1 0 1.8-.8 1.8-1.8s-.8-1.8-1.8-1.8h-4c-.3 0-.6-.3-.6-.6v-1.3h4.7c1 0 1.8-.8 1.8-1.8s-.8-1.8-1.8-1.8h-4.7v-1.3c0-.3.3-.6.6-.6h4c1 0 1.8-.8 1.8-1.8s-.8-1.8-1.8-1.8h-4c-2.4 0-4.3 1.9-4.3 4.3v6.2c0 2.2 1.9 4.1 4.3 4.1z" fill="rgb(0,0,0)" style="fill: rgb(255, 255, 255);"></path><path d="m27.1 35 3 3.7c.4.5.9.7 1.4.7.4 0 .8-.1 1.1-.4.8-.6.9-1.8.3-2.6l-3.5-4.3 3.5-4.3c.6-.8.5-1.9-.3-2.6-.8-.6-1.9-.5-2.6.3l-3 3.7-3-3.7c-.6-.8-1.8-.9-2.6-.3s-.9 1.8-.3 2.6l3.5 4.3-3.5 4.3c-.6.8-.5 1.9.3 2.6.3.3.7.4 1.1.4.5 0 1.1-.2 1.4-.7z" fill="rgb(0,0,0)" style="fill: rgb(255, 255, 255);"></path><path d="m60.2 24.9c-.8-.2-1.6.1-2 .8l-3.3 5.1-3.2-5.1c-.4-.7-1.3-1-2.1-.8s-1.3.9-1.3 1.8v10.9c0 1 .8 1.8 1.8 1.8s1.8-.8 1.8-1.8v-4.6l1.3 2.1c.3.5.9.9 1.5.9.7 0 1.2-.3 1.6-.8l1.6-2.5.1 4.9c0 1 .8 1.8 1.8 1.8 1 0 1.8-.9 1.8-1.9l-.2-10.9c.1-.8-.4-1.5-1.2-1.7z" fill="rgb(0,0,0)" style="fill: rgb(255, 255, 255);"></path><path d="m88.7 8.3v-5c0-1.4-1.2-2.4-2.7-2.4h-5.8c-1.5 0-2.7 1.1-2.7 2.4v5.1c-.6.3-1 .9-1 1.6v6.3c0 .7.4 1.3 1 1.6v59.6c0 .2.1.3.1.5 0 .1.1.2.1.3l3.6 11.1c.2.8 1 1.3 1.7 1.3s1.5-.5 1.7-1.3l3.6-11c.1-.2.2-.5.2-.8v-59.7c.6-.3 1-.9 1-1.6v-6.3c.2-.8-.2-1.4-.8-1.7zm-8.4 3.5h5.8v2.6h-5.8zm.9-7.3h3.8v3.6h-3.8zm1.9 78.4-1.4-4.1c.9-.1 1.8-.1 2.7 0zm-1.9-7.8v-57h3.8v57c-1.2-.1-2.5-.1-3.8 0z" fill="rgb(0,0,0)" style="fill: rgb(255, 255, 255);"></path><path d="m51.8.8c-.3-.3-.8-.5-1.3-.5h-47.3c-1 0-1.8.8-1.8 1.8v86.1c0 1 .8 1.8 1.8 1.8h55 .4c1.3 0 5.3-.2 8-2.8 1.8-1.7 2.7-4 2.7-6.8v-61.3c0-.5-.2-1-.5-1.3zm11.2 16.4h-10.7v-10.7zm1.1 67.4c-2.1 2-5.6 1.8-5.8 1.8h-53.3v-82.5h43.6v15.1c0 1 .8 1.8 1.8 1.8h15.1v59.6c.1 1.9-.4 3.2-1.4 4.2z" fill="rgb(0,0,0)" style="fill: rgb(255, 255, 255);"></path><path d="m59.1 50.2h-33.4c-1 0-1.8.8-1.8 1.8s.8 1.8 1.8 1.8h33.4c1 0 1.8-.8 1.8-1.8s-.8-1.8-1.8-1.8z" fill="rgb(0,0,0)" style="fill: rgb(255, 255, 255);"></path><path d="m25.7 59.9h25.5c1 0 1.8-.8 1.8-1.8s-.8-1.8-1.8-1.8h-25.5c-1 0-1.8.8-1.8 1.8-.1 1 .7 1.8 1.8 1.8z" fill="rgb(0,0,0)" style="fill: rgb(255, 255, 255);"></path><path d="m59.1 65.6h-33.4c-1 0-1.8.8-1.8 1.8s.8 1.8 1.8 1.8h33.4c1 0 1.8-.8 1.8-1.8s-.8-1.8-1.8-1.8z" fill="rgb(0,0,0)" style="fill: rgb(255, 255, 255);"></path><path d="m51.2 71.6h-25.5c-1 0-1.8.8-1.8 1.8s.8 1.8 1.8 1.8h25.5c1 0 1.8-.8 1.8-1.8s-.8-1.8-1.8-1.8z" fill="rgb(0,0,0)" style="fill: rgb(255, 255, 255);"></path><path d="m17.7 48.9-3.5 4.4-.7-.7c-.7-.7-1.9-.6-2.6.1s-.6 1.9.1 2.6l2.2 2c.3.3.8.5 1.2.5h.1c.5 0 1-.3 1.3-.7l4.8-6c.6-.8.5-1.9-.3-2.6-.8-.5-2-.4-2.6.4z" fill="rgb(0,0,0)" style="fill: rgb(255, 255, 255);"></path><path d="m17.7 64.5-3.6 4.5-.7-.7c-.7-.7-1.9-.6-2.6.1s-.6 1.9.1 2.6l2.2 2c.3.3.8.5 1.2.5h.1c.5 0 1-.3 1.3-.7l4.8-6c.6-.8.5-1.9-.3-2.6-.7-.6-1.9-.5-2.5.3z" fill="rgb(0,0,0)" style="fill: rgb(255, 255, 255);"></path></g></g></svg>