<!-- icon666.com - MILLIONS vector ICONS FREE --><svg id="Layer_1" enable-background="new 0 0 91 91" viewBox="0 0 91 91" xmlns="http://www.w3.org/2000/svg"><g><g><g><g fill="#ef9a9a"><path d="m86.3 2.1h-5.8c-.9 0-1.7.6-1.7 1.4v6.7c0 .5.4.8.8.8h7.5c.5 0 .8-.4.8-.8v-6.7c0-.8-.7-1.4-1.6-1.4z" fill="#ef9a9a" style="fill: rgb(4, 0, 214);"></path><path d="m87.1 15.7h-7.5c-.5 0-.8.4-.8.8v61.2c0 .5.4.8.8.8.5 0 .8-.4.8-.8h5.8c0 .5.4.8.8.8.5 0 .8-.4.8-.8v-61.2c.1-.4-.2-.8-.7-.8z" fill="#ef9a9a" style="fill: rgb(4, 0, 214);"></path></g><g fill="#87aedc"><path d="m87.8 77.3c-.1-.2-.3-.3-.5-.4-2.5-.8-5.4-.8-8 0-.2.1-.4.2-.5.4s-.1.4-.1.6l3.7 11.4c.1.3.4.6.8.6s.7-.2.8-.6l3.7-11.4c.3-.2.2-.4.1-.6z" fill="#87aedc"></path><path d="m88.1 9.4h-9.5c-.5 0-.8.4-.8.8v6.3c0 .5.4.8.8.8h9.5c.5 0 .8-.4.8-.8v-6.3c.1-.4-.3-.8-.8-.8z" fill="#87aedc"></path></g></g><path d="m69 14.7-13.6-13.6c-.3-.3-.8-.5-1.3-.5h-50.7c-1 0-1.8.8-1.8 1.8v86.1c0 1 .8 1.8 1.8 1.8h55 .4c1.3 0 5.3-.2 8-2.8 1.8-1.7 2.7-4 2.7-6.8v-64.7c0-.5-.2-.9-.5-1.3z" fill="#e6e8ea"></path><path d="m69 14.7-13.6-13.6c-.5-.5-1.3-.7-2-.4s-1.1 1-1.1 1.7v13.6c0 1 .8 1.8 1.8 1.8h13.6c.7 0 1.4-.4 1.7-1.1s.1-1.5-.4-2z" fill="#9ebce3"></path><path d="m59.3 54.1h-33.4c-1 0-1.8-.8-1.8-1.8s.8-1.8 1.8-1.8h33.4c1 0 1.8.8 1.8 1.8.1 1-.8 1.8-1.8 1.8z" fill="#fff"></path><path d="m51.4 61.9h-25.5c-1 0-1.8-.8-1.8-1.8s.8-1.8 1.8-1.8h25.5c1 0 1.8.8 1.8 1.8 0 .9-.8 1.8-1.8 1.8z" fill="#d2d2d4"></path><path d="m59.3 69.5h-33.4c-1 0-1.8-.8-1.8-1.8s.8-1.8 1.8-1.8h33.4c1 0 1.8.8 1.8 1.8s-.8 1.8-1.8 1.8z" fill="#fff"></path><path d="m51.4 77.3h-25.5c-1 0-1.8-.8-1.8-1.8s.8-1.8 1.8-1.8h25.5c1 0 1.8.8 1.8 1.8s-.8 1.8-1.8 1.8z" fill="#d2d2d4"></path><g fill="#ef9a9a"><path d="m14.6 58.1c-.5 0-.9-.2-1.2-.5l-2.2-2c-.7-.7-.8-1.8-.1-2.6.7-.7 1.8-.8 2.6-.1l.7.7 3.5-4.4c.6-.8 1.8-.9 2.6-.3s.9 1.8.3 2.6l-4.8 6c-.3.4-.8.6-1.3.7 0-.1-.1-.1-.1-.1z" fill="#ef9a9a" style="fill: rgb(4, 0, 214);"></path><path d="m14.6 73.8c-.5 0-.9-.2-1.2-.5l-2.2-2c-.7-.7-.8-1.8-.1-2.6.7-.7 1.8-.8 2.6-.1l.7.7 3.5-4.4c.6-.8 1.8-.9 2.6-.3s.9 1.8.3 2.6l-4.8 6c-.3.4-.8.6-1.3.7 0-.1-.1-.1-.1-.1z" fill="#ef9a9a" style="fill: rgb(4, 0, 214);"></path></g></g><g fill="#87aedc"><g><path d="m45.6 39.6c-.8 0-1.6-.5-1.8-1.4l-2.6-9.7c-.1 0-.2 0-.3 0 .1 0-.4 0-.3-.1l-2.5 9.8c-.2 1-1.2 1.6-2.2 1.3-1-.2-1.6-1.2-1.3-2.2l2.5-9.8c.3-1 1.4-2.6 3.9-2.6 2.4 0 3.5 1.5 3.8 2.4l2.7 10c.3 1-.3 2-1.3 2.2-.3.1-.5.1-.6.1z" fill="#000000"></path><path d="m40.1 36.2h-2.9c-1 0-1.8-.8-1.8-1.8s.8-1.8 1.8-1.8h2.9c1 0 1.8.8 1.8 1.8.1 1-.8 1.8-1.8 1.8z" fill="#000000"></path></g><g><path d="m18.2 39.7h-4c-2.4 0-4.3-1.9-4.3-4.3v-6.2c0-2.4 1.9-4.3 4.3-4.3h4c1 0 1.8.8 1.8 1.8s-.8 1.8-1.8 1.8h-4c-.3 0-.6.3-.6.6v6.2c0 .3.3.6.6.6h4c1 0 1.8.8 1.8 1.8 0 1.2-.8 2-1.8 2z" fill="#000000"></path><path d="m18.2 34.1h-6.5c-1 0-1.8-.8-1.8-1.8s.8-1.8 1.8-1.8h6.5c1 0 1.8.8 1.8 1.8s-.8 1.8-1.8 1.8z" fill="#000000"></path></g><g><path d="m31.7 39.7c-.5 0-1.1-.2-1.4-.7l-8.8-10.9c-.6-.8-.5-1.9.3-2.6.8-.6 1.9-.5 2.6.3l8.8 10.9c.6.8.5 1.9-.3 2.6-.3.3-.7.4-1.2.4z" fill="#000000"></path><path d="m22.9 39.7c-.4 0-.8-.1-1.2-.4-.8-.6-.9-1.8-.3-2.6l8.8-10.9c.6-.8 1.8-.9 2.6-.3s.9 1.8.3 2.6l-8.7 10.9c-.4.5-.9.7-1.5.7z" fill="#000000"></path></g><path d="m50.6 39.7c-1 0-1.8-.8-1.8-1.8v-11c0-.8.5-1.5 1.3-1.8.8-.2 1.6.1 2.1.8l3.2 5.1 3.3-5.1c.4-.7 1.3-1 2-.8.8.2 1.3.9 1.3 1.7l.2 10.9c0 1-.8 1.9-1.8 1.9s-1.9-.8-1.9-1.8l-.1-4.9-1.6 2.5c-.3.5-.9.8-1.6.8-.6 0-1.2-.3-1.5-.9l-1.3-2.1v4.6c.1 1.1-.8 1.9-1.8 1.9z" fill="#87aedc"></path></g></g></svg>