<!-- icon666.com - MILLIONS vector ICONS FREE --><svg id="svg3404" viewBox="0 0 16.933333 16.933333" xmlns="http://www.w3.org/2000/svg" xmlns:svg="http://www.w3.org/2000/svg"><path id="comm-13_message" d="m8.4677074.52911845c-.05407-.0003-.106902.016-.151402.047l-7.67284785 5.29490005c-.07158.049-.114314.1307999-.114314.2177999l.000375 10.0508006c-.000024.1461.118362.2645.264487.2646h15.34543345c.14623.0001.26477-.1184.26475-.2646v-10.0508006c0-.087-.0427-.1683999-.11431-.2177999l-7.6729626-5.29490005c-.04388-.03-.09589-.047-.149209-.047zm-.001.58590005 7.2587616 5.0096999c-2.41967 2.2411999-4.840117 4.4940006-7.2584366 6.7411006l-7.2457089-6.7504007zm-7.4080349 5.5719998 5.392538 5.0241007-5.392538 3.9076zm14.8158765.018v8.9134007l-5.3896-3.9055zm-9.0287026 5.3735007 1.440444 1.342c.101542.095.258988.095.360707.000397l1.4427686-1.3406 5.236483 3.7945h-13.7191135z" font-variant-ligatures="normal" font-variant-position="normal" font-variant-caps="normal" font-variant-numeric="normal" font-variant-alternates="normal" font-feature-settings="normal" text-indent="0" text-align="start" text-decoration-line="none" text-decoration-style="solid" text-decoration-color="rgb(0,0,0)" text-transform="none" text-orientation="mixed" white-space="normal" shape-padding="0" isolation="auto" mix-blend-mode="normal" solid-color="rgb(0,0,0)" solid-opacity="1" vector-effect="none" paint-order="fill markers stroke" fill="#000000" style="fill: rgb(255, 255, 255);"></path></svg>