<!-- icon666.com - MILLIONS vector ICONS FREE --><svg viewBox="0 0 32 32" xmlns="http://www.w3.org/2000/svg" xmlns:xlink="http://www.w3.org/1999/xlink"><linearGradient id="linear-gradient" gradientUnits="userSpaceOnUse" x1="15.878" x2="16.128" y1=".249" y2="32.499"><stop offset="0" stop-color="#b621fe"></stop><stop offset="1" stop-color="#1fd1f9"></stop></linearGradient><linearGradient id="linear-gradient-3" x1="15.909" x2="16.159" xlink:href="#linear-gradient" y1=".249" y2="32.499"></linearGradient><linearGradient id="linear-gradient-4" x1="15.893" x2="16.143" xlink:href="#linear-gradient" y1=".249" y2="32.499"></linearGradient><linearGradient id="linear-gradient-6" x1="15.862" x2="16.112" xlink:href="#linear-gradient" y1=".249" y2="32.499"></linearGradient><linearGradient id="linear-gradient-7" x1="15.847" x2="16.097" xlink:href="#linear-gradient" y1=".249" y2="32.499"></linearGradient><g id="note" fill-rule="evenodd"><path d="m16 1.5a14.5 14.5 0 1 0 14.5 14.5 14.507 14.507 0 0 0 -14.5-14.5zm0 28a13.5 13.5 0 1 1 13.5-13.5 13.506 13.506 0 0 1 -13.5 13.5z" fill="url(#linear-gradient)"></path><path d="m22 7.5h-12a.5.5 0 0 0 -.5.5v16a.5.5 0 0 0 .5.5h12a.5.5 0 0 0 .5-.5v-16a.5.5 0 0 0 -.5-.5zm-.5 16h-11v-15h11z" fill="url(#linear-gradient)"></path><path d="m12 12.5h8a.5.5 0 0 0 0-1h-8a.5.5 0 0 0 0 1z" fill="url(#linear-gradient-3)"></path><path d="m12 14.5h8a.5.5 0 0 0 0-1h-8a.5.5 0 0 0 0 1z" fill="url(#linear-gradient-4)"></path><path d="m12 16.5h8a.5.5 0 0 0 0-1h-8a.5.5 0 0 0 0 1z" fill="url(#linear-gradient)"></path><path d="m12 18.5h8a.5.5 0 0 0 0-1h-8a.5.5 0 0 0 0 1z" fill="url(#linear-gradient-6)"></path><path d="m12 20.5h8a.5.5 0 0 0 0-1h-8a.5.5 0 0 0 0 1z" fill="url(#linear-gradient-7)"></path></g></svg>