<!-- icon666.com - MILLIONS vector ICONS FREE --><svg id="Layer_1" enable-background="new 0 0 250 250" viewBox="0 0 250 250" xmlns="http://www.w3.org/2000/svg"><g clip-rule="evenodd" fill-rule="evenodd"><path d="m250.4 124.9c0 68.9-55.6 124.7-124.4 125h-.1-.9c-1 0-1.9 0-2.9 0-67.5-1.8-121.7-57-121.7-125s54.2-123.2 121.7-124.9h2.9.8.1c68.9.2 124.5 56.1 124.5 124.9z" fill="#f46a4e"></path><path d="m74.4 99.2v15.5h-11.2v9.5h15.6c2.8 0 5.1-2.3 5.1-5.1v-19.9zm100.7-42.1h-89.3c-6.3 0-11.4 5.1-11.4 11.4v11.8h-11.2v9.5h15.6c2.8 0 5.1-2.3 5.1-5.1v-18.1h93.4v64c0 7.9-3.1 15.4-8.7 21l-8.2 8.2 6.7 6.7 10.7-10.7c5.7-5.7 8.9-13.5 8.9-21.6v-65.5c.1-6.4-5.1-11.6-11.6-11.6zm-100.7 76.5v15.4h-11.2v9.5h15.6c2.8 0 5.1-2.3 5.1-5.1v-19.9h-9.5zm17.8 49.8c-4.6 0-8.3-3.7-8.3-8.3v-7.2h-9.5v7.6c0 9.6 7.8 17.3 17.3 17.3h91.7v-9.5h-91.2z" fill="#fff"></path><path d="m250.4 124.9c0 68.9-55.6 124.7-124.4 125h-.1-.4v-250h.4.1c68.8.3 124.4 56.2 124.4 125z" fill="#f25f46"></path><g fill="#e1e1e1"><path d="m125.4 183.4h58v9.5h-58z"></path><path d="m186.8 68.8v65.5c0 8.1-3.2 15.8-8.9 21.6l-10.7 10.7-6.7-6.7 8.2-8.2c5.6-5.6 8.7-13.1 8.7-21v-64h-51.9v-9.5h49.7c6.4-.1 11.6 5.1 11.6 11.6z"></path></g></g></svg>