<!-- icon666.com - MILLIONS vector ICONS FREE --><svg viewBox="-96 0 512 512.00024" xmlns="http://www.w3.org/2000/svg"><path d="m310 173h-18.871094l14.121094-81.671875c.304688-1.765625.117188-3.503906-.449219-5.078125 4.925781-4.925781 8.417969-11.335938 9.707031-18.640625 2.714844-15.402344-11.917968-50.089844-16.46875-60.355469-1.351562-3.042968-4.128906-5.214844-7.40625-5.792968-3.28125-.585938-6.632812.511718-8.941406 2.910156-7.785156 8.089844-33.402344 35.679687-36.121094 51.082031-1.292968 7.335937-.179687 14.546875 2.753907 20.832031-1.109375 1.335938-1.875 2.945313-2.175781 4.691406l-15.910157 92.023438h-55.238281v-104.976562c11-9.730469 20-.65625 20 10.476562v63.5c0 5.523438 4.476562 10 10 10s10-4.476562 10-10v-63.5c0-22.171875-17.933594-40.234375-40.046875-40.488281-.574219-16.582031-10.785156-31.070313-26.335937-37.179688l-.371094-.144531c-2.390625-.933594-5.03125-.914062-7.40625.050781-15.707032 6.402344-25.839844 21.496094-25.839844 48.457031v123.804688h-20.085938l-16.21875-92.230469c-.183593-1.046875-.535156-2.054687-1.039062-2.992187l-37.816406-70.503906c-2.039063-3.808594-6.292969-5.871094-10.546875-5.121094-4.253907.75-7.542969 4.144531-8.160157 8.417968l-11.425781 79.1875c-.148437 1.050782-.132812 2.117188.050781 3.160157l14.082032 80.082031h-13.839844c-5.523438 0-10 3.976562-10 9.5v70c0 5.523438 4.476562 10.5 10 10.5h10v21c0 67.546875 19.015625 213.136719 19.824219 219.300781.65625 4.980469 4.898437 8.699219 9.914062 8.699219h220.523438c5.019531 0 9.261719-3.722656 9.914062-8.699219.808594-6.164062 19.824219-151.753906 19.824219-219.300781v-21h10c5.523438 0 10-4.976562 10-10.5v-70c0-5.523438-4.476562-9.5-10-9.5zm-44.734375-114.074219c.839844-4.761719 9.960937-17.167969 20.386719-29.214843 5.679687 14.878906 10 29.65625 9.160156 34.425781-1.265625 7.183593-7.46875 12.398437-14.742188 12.398437-.875 0-1.761718-.078125-2.632812-.230468-8.144531-1.4375-13.605469-9.234376-12.171875-17.378907zm-1.117187 35.34375 19.695312 3.472657-4.089844 23.648437-19.695312-3.472656zm-7.496094 43.355469 19.695312 3.472656-5.515625 31.902344h-20.300781zm-121.652344-98.429688c0-7.402343 3.730469-14.117187 9.769531-18.039062 6.316407 3.867188 10.230469 10.71875 10.230469 18.335938v20.507812h-20zm0 40.804688h20v20h-20zm0 40h20v53h-20zm-98.414062-76.484375 16.917968 31.539063-22.027344 3.882812zm24.144531 50.574219 13.875 78.910156h-30.457031l-12.960938-73.703125zm219.269531 189.910156c0 42.117188-7.867188 118-13.644531 168h-66.617188c-5.507812 0-10 4.488281-10 10s4.492188 10 10 10h64.25c-1.023437 8-1.894531 15-2.53125 20h-202.914062c-.636719-5-1.507813-12-2.53125-20h63.726562c5.519531 0 10-4.488281 10-10s-4.480469-10-10-10h-66.09375c-5.777343-50-13.644531-125.878906-13.644531-168v-21h240zm20-41h-280v-50h280zm0 0" fill="#000000" style="fill: rgb(255, 255, 255);"></path><path d="m159.738281 471.5c5.523438 0 10-4.488281 10-10s-4.476562-10-10-10c-5.507812 0-10 4.488281-10 10 0 5.507812 4.492188 10 10 10zm0 0" fill="#000000" style="fill: rgb(255, 255, 255);"></path></svg>