<!-- icon666.com - MILLIONS vector ICONS FREE --><svg viewBox="0 0 512 512" xmlns="http://www.w3.org/2000/svg" xmlns:xlink="http://www.w3.org/1999/xlink"><linearGradient id="a" gradientTransform="matrix(1 0 0 -1 0 -15158)" gradientUnits="userSpaceOnUse" x1="0" x2="512" y1="-15414" y2="-15414"><stop offset="0" stop-color="#00f1ff"></stop><stop offset=".231" stop-color="#00d8ff"></stop><stop offset=".5138" stop-color="#00c0ff"></stop><stop offset=".7773" stop-color="#00b2ff"></stop><stop offset="1" stop-color="#00adff"></stop></linearGradient><path d="m512 256c0 141.386719-114.613281 256-256 256s-256-114.613281-256-256 114.613281-256 256-256 256 114.613281 256 256zm0 0" fill="url(#a)"></path><g fill="#fff"><path d="m257.003906 425.851562c-8.785156 0-15.910156 7.121094-15.910156 15.90625 0 8.789063 7.125 15.910157 15.910156 15.910157s15.90625-7.121094 15.90625-15.910157c0-8.785156-7.121094-15.90625-15.90625-15.90625zm0 0"></path><path d="m257.003906 393.128906c-8.285156 0-15-6.71875-15-15v-36.9375c0-34.765625 20.359375-65.917968 51.871094-79.375 34.460938-14.710937 56.808594-48.285156 57.117188-85.695312-.011719-.273438-.019532-.546875-.019532-.820313 0-51.8125-42.15625-93.96875-93.96875-93.96875-51.816406 0-93.96875 42.152344-93.96875 93.96875 0 8.285157-6.71875 15-15 15-8.285156 0-15-6.714843-15-15 0-68.355469 55.609375-123.96875 123.96875-123.96875 68.042969 0 123.457032 55.105469 123.964844 123.03125.019531.308594.027344.621094.027344.933594.011718 49.773437-29.5625 94.566406-75.34375 114.109375-20.441406 8.730469-33.648438 29.054688-33.648438 51.78125v36.9375c0 8.285156-6.714844 15.003906-15 15.003906zm0 0"></path></g></svg>