<!-- icon666.com - MILLIONS vector ICONS FREE --><svg version="1.1" id="Capa_1" xmlns="http://www.w3.org/2000/svg" xmlns:xlink="http://www.w3.org/1999/xlink" x="0px" y="0px" viewBox="0 0 512 512" style="enable-background:new 0 0 512 512;" xml:space="preserve"><g><g><path d="M501.681,211.749l-61.659-20.255c-2.385-6.79-5.167-13.483-8.317-20.017l28.63-57.263 c2.887-5.775,1.755-12.749-2.81-17.314L415.1,54.475c-4.565-4.566-11.541-5.697-17.314-2.81l-57.263,28.631 c-6.534-3.151-13.227-5.933-20.016-8.318l-20.255-61.66C298.228,4.162,292.48,0,286,0h-60c-6.48,0-12.229,4.162-14.251,10.319 l-20.255,61.659c-6.789,2.385-13.482,5.167-20.016,8.318l-57.263-28.631c-5.776-2.889-12.75-1.756-17.314,2.81L54.475,96.9 c-4.565,4.565-5.697,11.54-2.81,17.314l28.631,57.263c-3.151,6.534-5.933,13.228-8.318,20.016l-61.659,20.255 C4.162,213.771,0,219.52,0,226v60c0,6.48,4.162,12.228,10.318,14.251l61.66,20.255c2.386,6.791,5.167,13.483,8.317,20.015 l-28.63,57.262c-2.887,5.775-1.755,12.749,2.81,17.314L96.9,457.525c4.565,4.565,11.541,5.697,17.315,2.81l57.261-28.631 c6.536,3.152,13.229,5.934,20.018,8.319l20.255,61.659C213.771,507.838,219.52,512,226,512h60c6.48,0,12.228-4.162,14.251-10.318 l20.255-61.66c6.788-2.385,13.482-5.167,20.018-8.319l57.261,28.631c5.774,2.888,12.749,1.756,17.315-2.81l42.425-42.427 c4.565-4.565,5.697-11.54,2.81-17.314l-28.63-57.262c3.151-6.532,5.932-13.224,8.317-20.015l61.66-20.255 C507.838,298.228,512,292.48,512,286v-60C512,219.52,507.838,213.771,501.681,211.749z M482,275.139l-58.542,19.231 c-4.635,1.523-8.24,5.205-9.665,9.872c-3.052,9.996-7.129,19.814-12.12,29.181c-2.284,4.287-2.351,9.416-0.178,13.761 l27.172,54.346l-27.136,27.137l-54.343-27.173c-4.345-2.173-9.473-2.107-13.759,0.176c-9.377,4.994-19.197,9.073-29.187,12.123 c-4.667,1.424-8.349,5.029-9.872,9.665L275.139,482h-38.277l-19.231-58.542c-1.523-4.636-5.205-8.241-9.872-9.666 c-9.989-3.049-19.809-7.127-29.188-12.122c-4.288-2.283-9.415-2.349-13.759-0.176l-54.343,27.173L83.333,401.53l27.172-54.346 c2.172-4.345,2.106-9.474-0.178-13.761c-4.99-9.367-9.068-19.185-12.12-29.181c-1.424-4.667-5.029-8.349-9.665-9.872L30,275.139 v-38.277l58.542-19.231c4.636-1.523,8.241-5.205,9.666-9.872c3.05-9.991,7.127-19.811,12.121-29.186 c2.283-4.287,2.349-9.415,0.177-13.759l-27.172-54.346l27.136-27.136l54.346,27.172c4.344,2.172,9.472,2.105,13.759-0.177 c9.375-4.993,19.194-9.071,29.186-12.121c4.667-1.425,8.349-5.03,9.872-9.666L236.861,30h38.277l19.231,58.542 c1.523,4.635,5.205,8.24,9.872,9.665c9.991,3.05,19.81,7.128,29.185,12.121c4.287,2.282,9.415,2.349,13.759,0.177l54.346-27.172 l27.136,27.136l-27.172,54.346c-2.172,4.345-2.106,9.472,0.177,13.759c4.992,9.373,9.07,19.192,12.12,29.185 c1.425,4.667,5.03,8.349,9.666,9.872L482,236.861V275.139z"></path></g></g><g><g><path d="M256,121c-74.439,0-135,60.561-135,135s60.561,135,135,135s135-60.561,135-135S330.439,121,256,121z M256,361 c-57.897,0-105-47.103-105-105c0-57.897,47.103-105,105-105c57.897,0,105,47.103,105,105C361,313.897,313.897,361,256,361z"></path></g></g><g><g><path d="M256,181c-41.355,0-75,33.645-75,75s33.645,75,75,75s75-33.645,75-75C331,214.645,297.355,181,256,181z M256,301 c-24.813,0-45-20.187-45-45s20.187-45,45-45s45,20.187,45,45S280.813,301,256,301z"></path></g></g></svg>