<!-- icon666.com - MILLIONS vector ICONS FREE --><svg id="Layer_1" enable-background="new 0 0 32 32" viewBox="0 0 32 32" xmlns="http://www.w3.org/2000/svg"><path d="m23.191 16.386 6.791-4.535c.132-.089.215-.235.222-.395.007-.159-.063-.313-.188-.412l-13.702-10.935c-.183-.146-.441-.146-.624 0l-13.704 10.935c-.125.099-.194.252-.188.412.007.16.089.306.222.395l6.79 4.533c.02.171.036.345.063.513v.001c.432 2.657 1.767 4.896 3.577 6.187l-.245 1.822c-1.523.363-7.407 2.03-9.005 6.423-.056.153-.033.324.06.458.094.132.247.212.41.212h12.332 12.331c.163 0 .316-.08.41-.213.093-.133.116-.304.06-.458-1.597-4.393-7.481-6.06-9.005-6.423l-.245-1.822c1.923-1.372 3.301-3.82 3.638-6.698zm-13.452-.941c-.004-.106-.011-.211-.012-.318.026-.061.042-.127.042-.198 0-1.7 2.854-3.136 6.232-3.136.659 0 1.296.056 1.898.157-2.44.614-6.388 1.821-8.16 3.495zm6.262-4.653c-2.685 0-4.984.796-6.232 2.007v-1.228c0-1.7 2.854-3.136 6.232-3.136 3.379 0 6.234 1.436 6.234 3.136v1.229c-1.248-1.212-3.548-2.008-6.234-2.008zm6.234 4.136c0 .07.015.136.04.196-.001.194-.01.387-.022.578-.843-1.018-1.304-2.067-1.548-2.802.946.551 1.53 1.262 1.53 2.028zm-19.09-3.529 3.906-3.117v3.708c0 .276.224.5.5.5s.5-.224.5-.5v-4.506l7.951-6.344 12.855 10.259-5.582 3.728c0-.034.004-.067.004-.101 0-.072-.017-.14-.044-.202v-3.253c0-2.319-3.178-4.136-7.234-4.136s-7.232 1.816-7.232 4.136v3.251c-.028.063-.045.13-.045.204 0 .034.003.066.004.099zm7.754 14.937 3.182 4.664h-9.645c1.323-2.551 4.443-3.976 6.463-4.664zm5.103 4.664h-.71l-1.283-1.88h3.985l-1.282 1.88zm11.566 0h-9.646l3.182-4.665c2.021.686 5.14 2.11 6.464 4.665zm-8.715-5.615c.028.212.188.382.398.424.015.003.345.073.855.215l-1.43 2.096h-5.35l-1.43-2.095c.51-.143.84-.213.855-.216.21-.042.37-.212.398-.424l.234-1.746c.813.4 1.694.628 2.617.628s1.804-.228 2.617-.628zm-2.851-2.118c-2.975 0-5.467-2.732-6.112-6.383.655-1.771 6.051-3.518 9.677-4.302.221.893.864 2.76 2.523 4.411-.674 3.596-3.144 6.274-6.088 6.274z" fill="#000000" style="fill: rgb(255, 255, 255);"></path></svg>