<!-- icon666.com - MILLIONS vector ICONS FREE --><svg id="Layer_1" enable-background="new 0 0 512 512" viewBox="0 0 512 512" xmlns="http://www.w3.org/2000/svg"><path d="m324.162 298.267v-36.305c19.802-16.349 33.683-39.622 37.916-66.072 15.396-3.092 27.03-16.715 27.03-33.007 0-6.272-1.771-12.182-4.835-17.25.308.004.611.017.92.02h.071c2.108 0 4.133-.833 5.632-2.318 1.516-1.502 2.368-3.548 2.368-5.682-.001-75.903-61.751-137.653-137.653-137.653s-137.652 61.75-137.652 137.651c0 2.125.845 4.162 2.35 5.663 1.5 1.496 3.532 2.337 5.65 2.337h.018c.294-.001.578-.01.872-.011-3.007 5.048-4.733 10.945-4.733 17.241 0 16.292 11.634 29.916 27.029 33.007 4.288 26.794 18.48 50.32 38.693 66.699v35.683c-77.651 4.193-139.731 68.987-139.731 147.508v58.222c0 4.418 3.582 8 8 8h399.785c4.418 0 8-3.582 8-8v-58.221c.001-78.614-62.041-143.327-139.73-147.512zm-3.492 15.862c12.279.417 24.141 2.527 35.357 6.107l-58.8 101.845-30.219-17.448zm42.768-135.514v-31.436c5.715 2.951 9.668 8.918 9.668 15.704.001 6.86-3.939 12.806-9.668 15.732zm-107.827-162.615c64.307 0 117.12 50.156 121.375 113.403-52.586-2.696-88.414-26.65-106.551-71.285-1.226-3.016-4.157-4.988-7.412-4.988-.003 0-.006 0-.01 0-3.259.004-6.189 1.984-7.409 5.007-18.558 45.991-58.304 69.392-121.376 71.377 4.202-63.299 57.039-113.514 121.383-113.514zm-117.495 146.882c0-6.728 3.964-12.717 9.668-15.687v31.419c-5.729-2.925-9.668-8.871-9.668-15.732zm25.668 15.907v-35.788c19.076-2.848 35.702-8.007 50.262-15.568 20.94-10.873 37.354-26.882 48.963-47.712 17.947 32.607 46.615 53.541 84.429 61.854v37.213c0 50.634-41.193 91.827-91.827 91.827s-91.827-41.192-91.827-91.826zm91.827 107.827c19.068 0 36.992-4.982 52.55-13.703v30.941l-52.161 87.975-52.162-87.975v-30.506c15.377 8.453 33.022 13.268 51.773 13.268zm-64.284 27.51 53.664 90.508-30.22 17.448-58.795-101.838c11.217-3.585 23.076-5.701 35.351-6.118zm256.566 181.874h-57.262v-60.168c0-4.418-3.582-8-8-8s-8 3.582-8 8v60.168h-237.262v-60.168c0-4.418-3.582-8-8-8s-8 3.582-8 8v60.168h-57.262v-50.221c0-52.852 31.541-98.732 76.787-119.66l64.021 110.89c1.061 1.838 2.808 3.178 4.858 3.728 2.048.549 4.233.262 6.07-.8l40.157-23.184 40.156 23.185c1.227.709 2.608 1.072 4 1.072.693 0 1.39-.09 2.07-.272 2.05-.55 3.797-1.89 4.858-3.728l64.03-110.904c45.253 20.906 76.778 66.757 76.778 119.674v50.22zm-222.437-266.71c9.124 5.497 19.551 8.403 30.156 8.403 10.604 0 21.032-2.906 30.155-8.403 3.783-2.284 8.7-1.062 10.981 2.723 2.28 3.784 1.061 8.7-2.723 10.98-11.616 7-24.899 10.7-38.413 10.7s-26.797-3.7-38.414-10.7c-3.784-2.28-5.003-7.196-2.723-10.98s7.195-5.006 10.981-2.723zm-19.534-69.693c0-4.418 3.572-8 7.991-8h.018c4.418 0 8 3.582 8 8s-3.582 8-8 8-8.009-3.582-8.009-8zm83.378 0c0-4.418 3.572-8 7.991-8h.018c4.418 0 8 3.582 8 8s-3.582 8-8 8-8.009-3.582-8.009-8z" fill="#000000" style="fill: rgb(0, 0, 0);"></path></svg>