<!-- icon666.com - MILLIONS vector ICONS FREE --><svg id="Capa_1" enable-background="new 0 0 596.447 596.447" viewBox="0 0 596.447 596.447" xmlns="http://www.w3.org/2000/svg"><g><g><path d="m297.32 201.346c-55.511 0-100.673-45.162-100.673-100.673s45.162-100.673 100.673-100.673c55.512 0 100.673 45.162 100.673 100.673s-45.161 100.673-100.673 100.673zm0-183.272c-45.545 0-82.599 37.054-82.599 82.599 0 45.546 37.054 82.6 82.599 82.6 45.546 0 82.599-37.054 82.599-82.6 0-45.545-37.053-82.599-82.599-82.599z" fill="#000000" style="fill: rgb(0, 6, 184);"></path></g><g><path d="m463.607 280.15c-2.603 0-5.187-1.119-6.974-3.284-35.129-42.555-84.728-68.883-139.659-74.133-54.924-5.25-108.619 11.205-151.174 46.334-9.405 7.764-18.174 16.418-26.061 25.721-3.227 3.806-8.929 4.277-12.737 1.049-3.807-3.227-4.276-8.93-1.049-12.737 8.578-10.118 18.113-19.528 28.341-27.972 46.279-38.204 104.671-56.096 164.4-50.388 59.738 5.71 113.676 34.342 151.878 80.619 3.178 3.849 2.633 9.545-1.217 12.723-1.683 1.39-3.722 2.068-5.748 2.068z" fill="#000000" style="fill: rgb(0, 6, 184);"></path></g><g><path d="m298.224 596.447c-.694 0-1.392-.08-2.081-.243l-226.469-53.59c-4.077-.965-6.956-4.605-6.956-8.794v-100.944c0-4.991 4.046-9.037 9.037-9.037s9.037 4.046 9.037 9.037v93.795l208.395 49.314v-259.14l-208.395-49.395v56.349c0 4.991-4.046 9.037-9.037 9.037s-9.037-4.046-9.037-9.037v-67.779c0-2.763 1.264-5.375 3.432-7.089s5.001-2.342 7.69-1.704l226.469 53.681c4.075.966 6.953 4.605 6.953 8.793v277.71c0 2.763-1.264 5.374-3.431 7.088-1.613 1.274-3.592 1.948-5.607 1.948z" fill="#000000" style="fill: rgb(0, 6, 184);"></path></g><g><path d="m298.224 596.447c-2.015 0-3.995-.674-5.606-1.949-2.167-1.714-3.431-4.325-3.431-7.088v-277.71c0-4.188 2.878-7.827 6.953-8.793l164.745-39.041 61.723-14.64c2.686-.638 5.523-.01 7.69 1.704s3.432 4.326 3.432 7.089v67.779c0 4.991-4.046 9.037-9.037 9.037s-9.037-4.046-9.037-9.037v-56.347l-50.602 12.002-157.794 37.394v259.139l208.396-49.314v-93.795c0-4.991 4.046-9.037 9.037-9.037s9.037 4.046 9.037 9.037v100.944c0 4.189-2.879 7.83-6.956 8.794l-226.47 53.59c-.688.163-1.386.242-2.08.242z" fill="#000000" style="fill: rgb(0, 6, 184);"></path></g><g><path d="m75.731 442.004h-7.953c-16.743 0-30.365-13.621-30.365-30.365v-66.514c0-16.742 13.622-30.363 30.365-30.363h7.953c16.743 0 30.365 13.621 30.365 30.363v66.514c0 16.744-13.622 30.365-30.365 30.365zm-7.953-109.168c-6.777 0-12.291 5.514-12.291 12.29v66.514c0 6.777 5.514 12.291 12.291 12.291h7.953c6.777 0 12.291-5.514 12.291-12.291v-66.514c0-6.776-5.514-12.29-12.291-12.29z" fill="#000000" style="fill: rgb(0, 6, 184);"></path></g><g><path d="m528.669 442.004h-7.953c-16.744 0-30.365-13.621-30.365-30.365v-66.514c0-16.742 13.621-30.363 30.365-30.363h7.953c16.744 0 30.365 13.621 30.365 30.363v66.514c0 16.744-13.621 30.365-30.365 30.365zm-7.953-109.168c-6.777 0-12.291 5.514-12.291 12.29v66.514c0 6.777 5.514 12.291 12.291 12.291h7.953c6.777 0 12.291-5.514 12.291-12.291v-66.514c0-6.776-5.514-12.29-12.291-12.29z" fill="#000000" style="fill: rgb(0, 6, 184);"></path></g></g></svg>