<!-- icon666.com - MILLIONS vector ICONS FREE --><svg viewBox="-51 0 512 512" xmlns="http://www.w3.org/2000/svg"><path d="m402.574219 92.675781-85.453125-85.28125c-4.78125-4.769531-11.132813-7.394531-17.886719-7.394531h-243.46875c-30.75 0-55.765625 24.980469-55.765625 55.683594v400.632812c0 30.703125 25.015625 55.683594 55.765625 55.683594h298.46875c30.75 0 55.765625-24.980469 55.765625-55.683594v-345.746094c0-6.761718-2.636719-13.117187-7.425781-17.894531zm-84.066407-41.515625 40.226563 40.148438h-35.628906c-2.535157 0-4.597657-2.046875-4.597657-4.5625zm35.726563 430.839844h-298.46875c-14.207031 0-25.765625-11.519531-25.765625-25.683594v-400.632812c0-14.164063 11.558594-25.683594 25.765625-25.683594h232.742187v56.746094c0 19.058594 15.519532 34.5625 34.601563 34.5625h56.890625v335.007812c0 14.164063-11.558594 25.683594-25.765625 25.683594zm0 0" fill="#000000" style="fill: rgb(255, 255, 255);"></path><path d="m294.546875 365.480469h-174.75c-8.28125 0-15 6.714843-15 15 0 8.285156 6.71875 15 15 15h174.75c8.285156 0 15-6.714844 15-15 0-8.285157-6.714844-15-15-15zm0 0" fill="#000000" style="fill: rgb(255, 255, 255);"></path><path d="m254.546875 415.480469h-94.75c-8.28125 0-15 6.714843-15 15 0 8.285156 6.71875 15 15 15h94.75c8.285156 0 15-6.714844 15-15 0-8.285157-6.714844-15-15-15zm0 0" fill="#000000" style="fill: rgb(255, 255, 255);"></path><path d="m205 105.125c-65.429688 0-118.65625 53.230469-118.65625 118.660156 0 65.429688 53.226562 118.65625 118.65625 118.65625s118.65625-53.226562 118.65625-118.65625c0-65.429687-53.226562-118.660156-118.65625-118.660156zm0 207.316406c-48.886719 0-88.65625-39.769531-88.65625-88.65625 0-48.886718 39.769531-88.660156 88.65625-88.660156s88.65625 39.773438 88.65625 88.660156c0 48.886719-39.769531 88.65625-88.65625 88.65625zm0 0" fill="#000000" style="fill: rgb(255, 255, 255);"></path><path d="m236.300781 217.785156h-16.300781v-36.84375c0-8.285156-6.714844-15-15-15s-15 6.714844-15 15v43.621094c0 12.804688 10.417969 23.222656 23.222656 23.222656h23.078125c8.285157 0 15-6.71875 15-15 0-8.285156-6.714843-15-15-15zm0 0" fill="#000000" style="fill: rgb(255, 255, 255);"></path></svg>